<svg xmlns="http://www.w3.org/2000/svg" width="151" height="31" fill="none"><g clip-path="url(#a)"><path fill="#000" d="M30.996 11.813c-4.03 0-6.51 3.168-6.51 7.663 0 4.494 2.48 7.655 6.51 7.655 4.03 0 6.506-3.183 6.506-7.66 0-4.475-2.424-7.658-6.506-7.658Zm0 18.973c-6.678 0-10.547-4.603-10.547-11.31 0-6.708 3.87-11.319 10.547-11.319 6.678 0 10.543 4.603 10.543 11.319 0 6.715-3.91 11.31-10.543 11.31Zm27.34-.43c-.127 0-.171-.086-.213-.214l-.018-1.936c-.086-.258-.375-.172-.468-.045-.75 1.124-2.85 2.622-5.574 2.622-7.015 0-9.27-4.562-9.27-10.154V8.801a.202.202 0 0 1 .214-.213h3.614a.202.202 0 0 1 .214.214v11.83c0 3.27 1.446 6.499 5.655 6.499 3.573 0 5.618-3.142 5.618-6.498V8.802a.199.199 0 0 1 .21-.214h3.618a.199.199 0 0 1 .21.214V30.15a.199.199 0 0 1-.21.213l-3.6-.007ZM14.645 15.843a.201.201 0 0 1-.213-.218c0-2.382-1.873-3.943-5.352-3.943-3.214 0-4.626 1.43-4.626 2.775 0 2.468 3.083 2.51 5.244 2.813 4.262.565 9.404.996 9.404 6.543 0 4.936-4.071 6.973-9.423 6.973-6.51 0-9.678-3.445-9.678-7.625a.202.202 0 0 1 .213-.213H3.81a.24.24 0 0 1 .258.213c0 2.168 2.184 3.944 5.618 3.944 2.184 0 5.352-.476 5.352-3.292 0-2.468-3.554-2.644-5.352-2.858-4.12-.48-9.31-1.127-9.31-6.498C.374 10.903 3.744 8 9.066 8s9.42 2.513 9.42 7.625c0 .132-.045.218-.172.218h-3.67Z"/><path fill="#FF9466" d="M78.412 15.843a.201.201 0 0 1-.214-.218c0-2.382-1.872-3.944-5.352-3.944-3.21 0-4.625 1.431-4.625 2.776 0 2.468 3.082 2.51 5.224 2.813 4.281.565 9.42.996 9.42 6.543 0 4.936-4.067 6.973-9.42 6.973-6.509 0-9.677-3.464-9.677-7.625a.203.203 0 0 1 .217-.214h3.595a.24.24 0 0 1 .255.214c0 2.168 2.184 3.944 5.618 3.944 2.183 0 5.352-.476 5.352-3.292 0-2.469-3.554-2.645-5.352-2.858-4.12-.48-9.292-1.124-9.292-6.498C64.16 10.902 67.53 8 72.854 8c5.322 0 9.42 2.513 9.42 7.625 0 .131-.042.218-.173.218h-3.69Zm6.48-7.255a.202.202 0 0 0-.214.213V30.15a.203.203 0 0 0 .13.2c.026.01.055.015.083.013h3.614a.204.204 0 0 0 .2-.13.203.203 0 0 0 .014-.083V18.31c0-3.37 1.146-6.497 4.719-6.497 4.041 0 4.764 3.142 4.764 6.498v11.831a.158.158 0 0 0 .041.128c0 .044.041.086.127.086h3.66a.16.16 0 0 0 .127-.042.223.223 0 0 0 .082-.172V18.311c0-3.371.723-6.498 4.723-6.498 4.21 0 4.76 3.228 4.76 6.498v11.831a.216.216 0 0 0 .013.084c.011.026.026.05.046.07a.202.202 0 0 0 .155.059h3.614a.202.202 0 0 0 .214-.213V18.311c0-6.453-2.851-10.154-8.379-10.154-2.041 0-4.805.686-6.419 2.58-.214.214-.3.173-.509 0-2-1.936-3.191-2.58-6.169-2.58-2.082 0-4.296 1.03-5.06 2.58-.086.173-.427.26-.51 0V8.802c-.04-.127-.085-.213-.213-.213h-3.614Zm36.954.213a.199.199 0 0 0-.059-.154.198.198 0 0 0-.154-.06h-3.615a.2.2 0 0 0-.154.06.202.202 0 0 0-.059.154V30.15a.199.199 0 0 0 .059.154.198.198 0 0 0 .154.06h3.615a.203.203 0 0 0 .213-.214V8.8Zm6.333-8.516a.188.188 0 0 0-.011-.085.207.207 0 0 0-.118-.12.2.2 0 0 0-.084-.013h-3.622a.201.201 0 0 0-.213.217v29.858a.184.184 0 0 0 .013.084c.01.026.025.05.046.07a.198.198 0 0 0 .154.06h3.614a.202.202 0 0 0 .214-.214l.007-29.857Zm12.158 11.528c4.209 0 5.955 3.228 5.955 5.678a.204.204 0 0 1-.214.217h-11.569a.228.228 0 0 1-.21-.217c0-2.02 1.914-5.678 6.038-5.678Zm-6.038 9.337a.203.203 0 0 1 .056-.156.202.202 0 0 1 .154-.062h15.865c.127 0 .169-.086.21-.213a5.53 5.53 0 0 0 .127-1.244c0-6.711-3.745-11.314-10.374-11.314-6.63 0-10.334 4.573-10.334 11.315 0 6.741 3.955 11.31 10.334 11.31 4.805 0 8.588-2.453 9.696-6.67.041-.169-.086-.213-.213-.213h-3.787c-.127 0-.21.044-.296.213-.895 1.723-2.382 2.996-5.4 2.996-3.787 0-6.038-2.842-6.038-5.992M117.531 2.318a2.3 2.3 0 0 0 3.194 2.205 2.289 2.289 0 0 0 1.247-1.298c.11-.29.16-.598.147-.907a2.28 2.28 0 0 0-.638-1.683 2.289 2.289 0 0 0-1.656-.705 2.299 2.299 0 0 0-2.294 2.388Z"/></g><defs><clipPath id="a"><path fill="#fff" d="M0 0h150.711v30.786H0z"/></clipPath></defs></svg>